# AST/ASF file generated using VICON BodyLanguage
# -----------------------------------------------
:version 1.10
:name VICON
:units
  mass 1.0
  length 0.45
  angle deg
:documentation
   .ast/.asf automatically generated from VICON data using
   VICON BodyBuilder and BodyLanguage model FoxedUp or BRILLIANT.MOD
:root
   order TX TY TZ RX RY RZ
   axis XYZ
   position 0 0 0  
   orientation 0 0 0 
:bonedata
  begin
     id 1 
     name lhipjoint
     direction 0.558404 -0.748506 0.357664 
     length 2.4234 
     axis 0 0 0  XYZ
  end
  begin
     id 2 
     name lfemur
     direction 0.34202 -0.939693 0  
     length 7.14567  
     axis 0 0 20  XYZ
    dof rx ry rz
    limits (-160.0 20.0)
           (-70.0 70.0)
           (-60.0 70.0)
  end
  begin
     id 3 
     name ltibia
     direction 0.34202 -0.939693 0   
     length 8.13956   
     axis 0 0 20   XYZ
    dof rx
    limits (-10.0 170.0)
  end
  begin
     id 4 
     name lfoot
     direction 0.0791314 -0.217412 0.972867   
     length 2.00134   
     axis -90 7.62852e-016 20   XYZ
    dof rx rz
    limits (-45.0 90.0)
           (-70.0 20.0)
  end
  begin
     id 5 
     name ltoes
     direction 1.53547e-011 -4.21922e-011 1   
     length 1.00735   
     axis -90 7.62852e-016 20   XYZ
    dof rx
    limits (-90.0 20.0)
  end
  begin
     id 6 
     name rhipjoint
     direction -0.496392 -0.78327 0.374276   
     length 2.31584  
     axis 0 0 0  XYZ 
  end
  begin
     id 7 
     name rfemur
     direction -0.34202 -0.939693 0   
     length 7.47417   
     axis 0 0 -20   XYZ
    dof rx ry rz
    limits (-160.0 20.0)
           (-70.0 70.0)
           (-70.0 60.0)
  end
  begin
     id 8 
     name rtibia
     direction -0.34202 -0.939693 0   
     length 7.69071   
     axis 0 0 -20   XYZ
    dof rx
    limits (-10.0 170.0)
 end
 begin
     id 9 
     name rfoot
     direction -0.103069 -0.28318 0.953512   
     length 2.16135  
     axis -90 -7.62852e-016 -20   XYZ
    dof rx rz
    limits (-45.0 90.0)
           (-20.0 70.0)
  end
  begin
     id 10 
     name rtoes
     direction -1.53581e-011 -4.21904e-011 1   
     length 1.07867   
     axis -90 -7.62852e-016 -20   XYZ
    dof rx
    limits (-90.0 20.0)
  end
  begin
     id 11 
     name lowerback
     direction -0.0258961 0.994776 -0.0987407   
     length 2.19412   
     axis 0 0 0   XYZ
    dof rx ry rz
    limits (-20.0 45.0)
           (-30.0 30.0)
           (-30.0 30.0)
  end
  begin
     id 12 
     name upperback
     direction 0.0402454 0.999185 0.00320666   
     length 2.18445   
     axis 0 0 0   XYZ
    dof rx ry rz
    limits (-20.0 45.0)
           (-30.0 30.0)
           (-30.0 30.0)
  end
  begin
     id 13 
     name thorax
     direction 0.0519376 0.997415 0.0496558   
     length 2.21487   
     axis 0 0 0   XYZ
    dof rx ry rz
    limits (-20.0 45.0)
           (-30.0 30.0)
           (-30.0 30.0)
  end
  begin
     id 14 
     name lowerneck
     direction -0.0921276 0.983211 0.157506   
     length 1.61201   
     axis 0 0 0   XYZ
    dof rx ry rz
    limits (-20.0 45.0)
           (-30.0 30.0)
           (-30.0 30.0)
  end
  begin
     id 15 
     name upperneck
     direction 0.0820814 0.98162 -0.172292   
     length 1.65275   
     axis 0 0 0   XYZ
    dof rx ry rz
    limits (-20.0 45.0)
           (-30.0 30.0)
           (-30.0 30.0)
  end
  begin
     id 16
     name head
     direction 0.0336554 0.996413 -0.0776455  
     length 1.66415  
     axis 0 0 0   XYZ
    dof rx ry rz
    limits (-20.0 45.0)
           (-30.0 30.0)
           (-30.0 30.0)
  end
  begin
     id 17 
     name lclavicle
     direction 0.94696 0.284418 -0.149576  
     length 3.41447  
     axis 0 0 0   XYZ
    dof ry rz
    limits (-20.0 10.0)
           (0.0 20.0)
  end
  begin
     id 18 
     name lhumerus
     direction 1 -0.000130264 -9.81312e-005   
     length 5.19964   
     axis 180 -30 -90   XYZ
    dof rx ry rz
    limits (-60.0 90.0)
           (-90.0 90.0)
           (-90.0 90.0)
  end
  begin
     id 19
     name lradius
     direction 1 -4.48961e-011 1.43854e-026   
     length 3.32189   
     axis 180 -30 -90   XYZ
    dof rx
    limits (-10.0 170.0)
  end
  begin
     id 20
     name lwrist
     direction 1 -4.48958e-011 3.1502e-026   
     length 1.66095   
     axis -1.97692e-014 90 90   XYZ
    dof ry
    limits (-180.0 0.0)
 end
  begin
     id 21 
     name lhand
     direction 1 -4.48927e-011 6.3004e-026   
     length 0.645616   
     axis -4.02019e-014 90 90   XYZ
    dof rx rz
    limits (-90.0 90.0)
           (-45.0 45.0)
  end
  begin
     id 22 
     name lfingers
     direction 1 -4.4904e-011 1.26008e-025   
     length 0.520512   
     axis -8.04039e-014 90 90   XYZ
    dof rx
    limits (0.0 90.0)
  end
  begin
     id 23
     name lthumb
     direction 0.707107 -6.34947e-011 0.707107   
     length 0.747354   
     axis -90 45 2.85299e-015   XYZ
    dof rx rz
    limits (-45.0 45.0)
           (-45.0 45.0)
  end
  begin
     id 24 
     name rclavicle
     direction -0.909391 0.383475 -0.161107   
     length 3.25176  
     axis 0 0 0   XYZ 
    dof ry rz
    limits (-10.0 20.0)
           (-20.0 0.0)
  end
  begin
     id 25 
     name rhumerus
     direction -1 -4.48965e-011 -1.81384e-027  
     length 5.6595   
     axis 180 30 90   XYZ
    dof rx ry rz
    limits (-90.0 60.0)
           (-90.0 90.0)
           (-90.0 90.0)
  end
  begin
     id 26 
     name rradius
     direction -1 -4.48996e-011 -8.09397e-027   
     length 3.37604   
     axis 180 30 90   XYZ
    dof rx
    limits (-10.0 170.0)
  end
  begin
     id 27 
     name rwrist
     direction -1 -4.48927e-011 -1.56669e-026   
     length 1.68802   
     axis 1.21142e-014 -90 -90   XYZ
    dof ry
    limits (-180.0 0.0)
  end
  begin
     id 28
     name rhand
     direction -1 -4.48912e-011 -3.13339e-026   
     length 0.824702   
     axis 1.99937e-014 -90 -90   XYZ
    dof rx rz
    limits (-90.0 90.0)
           (-45.0 45.0)
  end
  begin
     id 29
     name rfingers
     direction -1 -4.49011e-011 -6.26677e-026   
     length 0.664896   
     axis 3.99874e-014 -90 -90   XYZ
    dof rx
    limits (0.0 90.0)
  end
  begin
     id 30
     name rthumb
     direction -0.707107 -6.34931e-011 0.707107   
     length 0.954662   
     axis -90 -45 -2.85299e-015   XYZ
    dof rx rz
    limits (-45.0 45.0)
           (-45.0 45.0)
  end
:hierarchy
  begin
    root lhipjoint rhipjoint lowerback
    lhipjoint lfemur
    lfemur ltibia
    ltibia lfoot
    lfoot ltoes
    rhipjoint rfemur
    rfemur rtibia
    rtibia rfoot
    rfoot rtoes
    lowerback upperback
    upperback thorax
    thorax lowerneck lclavicle rclavicle
    lowerneck upperneck
    upperneck head
    lclavicle lhumerus
    lhumerus lradius
    lradius lwrist
    lwrist lhand lthumb
    lhand lfingers
    rclavicle rhumerus
    rhumerus rradius
    rradius rwrist
    rwrist rhand rthumb
    rhand rfingers
  end

#!OML:ASF F:\VICON\USERDATA\INSTALL\rory3\rory3.ASF
:FULLY-SPECIFIED
:DEGREES
16
root 10.9762 17.3446 -35.237 21.9847 -47.62 -8.24231
lowerback 9.68263 0.309018 -4.13336
upperback 0.191262 0.0962497 3.01742
thorax -5.25569 0.183843 5.50163
lowerneck -15.0495 3.40517 -8.35048
upperneck 21.5682 4.87115 7.84582
head 8.78135 2.41479 4.6409
rclavicle 7.83212e-014 9.54166e-015
rhumerus -34.5582 -9.36044 -75.7197
rradius 44.9532
rwrist -15.1931
rhand -10.8407 18.393
rfingers 7.12502
rthumb 15.1739 -11.0306
lclavicle 7.83212e-014 9.54166e-015
lhumerus -23.6765 16.8309 74.677
lradius 32.1719
lwrist -6.14482
lhand -3.24871 32.0013
lfingers 7.12502
lthumb 22.4753 60.7134
rfemur -32.8869 -0.107206 17.5812
rtibia 72.7725
rfoot -12.0284 -14.5336
rtoes 22.6282
lfemur -24.4352 6.24466 -24.0076
ltibia 49.5075
lfoot -20.913 20.5639
ltoes -53.7906
17
root 10.9309 17.3283 -35.0974 21.9132 -47.9837 -8.39965
lowerback 9.73514 0.339278 -4.16732
upperback 0.445353 0.126992 2.99223
thorax -5.02128 0.185966 5.48745
lowerneck -15.0701 3.44641 -8.54452
upperneck 21.2944 4.95125 8.00991
head 8.67306 2.46227 4.72605
rclavicle -1.78906e-015 -2.5842e-015
rhumerus -34.5007 -8.90136 -75.8548
rradius 45.0753
rwrist -15.3532
rhand -11.1772 18.2236
rfingers 7.12502
rthumb 14.8498 -11.2242
lclavicle -1.78906e-015 -2.5842e-015
lhumerus -24.2678 18.5397 74.8884
lradius 33.1474
lwrist -7.34571
lhand -3.55129 31.4178
lfingers 7.12502
lthumb 22.1848 60.1648
rfemur -33.3983 0.274614 17.5926
rtibia 73.1812
rfoot -12.3733 -14.2188
rtoes 21.9597
lfemur -23.9364 6.77195 -24.3149
ltibia 49.3181
lfoot -19.9582 20.4021
ltoes -55.2785
18
root 10.8928 17.3319 -34.9961 21.9956 -47.4864 -8.03845
lowerback 9.90816 0.0657659 -4.50252
upperback 0.336049 -0.274724 3.08584
thorax -5.18149 0.00441886 5.84074
lowerneck -14.5358 3.46717 -9.23034
upperneck 20.5949 5.014 8.50394
head 8.29541 2.50193 4.96406
rclavicle -9.35282e-014 -3.57812e-015
rhumerus -34.4907 -8.39302 -75.9614
rradius 45.0838
rwrist -15.3782
rhand -11.4309 18.1316
rfingers 7.12502
rthumb 14.6053 -11.3342
lclavicle -9.35282e-014 -3.57812e-015
lhumerus -22.2984 16.5983 74.4699
lradius 31.8537
lwrist -4.9893
lhand -2.69509 32.2229
lfingers 7.12502
lthumb 23.0066 60.8699
rfemur -34.4928 0.0716141 17.7449
rtibia 73.4645
rfoot -12.6375 -14.1209
rtoes 20.3926
lfemur -24.5743 6.26748 -24.6021
ltibia 49.0717
lfoot -17.3463 20.0036
ltoes -58.3262
19
root 10.8602 17.3607 -34.9321 22.9768 -46.3306 -7.54916
lowerback 9.54269 -0.362359 -4.95542
upperback -0.18083 -0.869848 3.25763
thorax -5.43348 -0.252151 6.36993
lowerneck -15.0198 3.55067 -8.71996
upperneck 21.0977 5.12115 8.09874
head 8.57252 2.54211 4.79123
rclavicle 1.41137e-014 -1.11319e-014
rhumerus -34.5191 -8.42218 -76.028
rradius 44.9146
rwrist -15.2075
rhand -11.3538 18.2203
rfingers 7.12502
rthumb 14.6796 -11.2401
lclavicle 1.41137e-014 -1.11319e-014
lhumerus -21.6711 16.4165 74.53
lradius 31.5372
lwrist -4.96955
lhand -2.7526 32.3041
lfingers 7.12502
lthumb 22.9514 60.9579
rfemur -36.703 -0.457014 18.2698
rtibia 73.5729
rfoot -12.7634 -14.2334
rtoes 19.5803
lfemur -26.5717 5.45909 -24.4429
ltibia 49.0964
lfoot -17.8421 17.9336
ltoes -62.9716
20
root 10.8146 17.4178 -34.81 23.3995 -45.9371 -7.39021
lowerback 9.40172 -0.437495 -5.08751
upperback -0.301624 -0.979208 3.23974
thorax -5.46414 -0.29792 6.44033
lowerneck -15.0761 3.47217 -8.53761
upperneck 21.1443 4.98136 8.04674
head 8.61916 2.48433 4.73397
rclavicle 2.01766e-014 2.78299e-015
rhumerus -34.5696 -8.97243 -75.9574
rradius 44.6942
rwrist -14.8906
rhand -11.1907 18.354
rfingers 7.12502
rthumb 14.8367 -11.0948
lclavicle 2.01766e-014 2.78299e-015
lhumerus -21.0243 15.9019 74.7434
lradius 31.4745
lwrist -4.49696
lhand -4.07711 31.6723
lfingers 7.12502
lthumb 21.6799 60.4784
rfemur -37.7696 -0.558074 18.5513
rtibia 73.2547
rfoot -14.0059 -13.1766
rtoes 15.4818
lfemur -27.4527 4.42097 -24.1614
ltibia 49.2992
lfoot -17.7035 14.6094
ltoes -63.4968
